<?xml version="1.0" encoding="iso-8859-1"?>
<!-- Generator: Adobe Illustrator 16.0.0, SVG Export Plug-In . SVG Version: 6.00 Build 0)  -->
<!DOCTYPE svg PUBLIC "-//W3C//DTD SVG 1.1//EN" "http://www.w3.org/Graphics/SVG/1.1/DTD/svg11.dtd">
<svg version="1.1" id="Capa_1" xmlns="http://www.w3.org/2000/svg" xmlns:xlink="http://www.w3.org/1999/xlink" x="0px" y="0px"
	 width="46.066px" height="46.066px" viewBox="0 0 46.066 46.066" style="enable-background:new 0 0 46.066 46.066;"
	 xml:space="preserve">
<g>
	<g>
		<path d="M44.846,6.838H13.237c-0.674,0-1.253,0.521-1.253,1.195V11.6c0,0.675-0.514,1.187-1.188,1.187H6.763
			c-0.462,0-0.886,0.278-1.092,0.691L2.34,20.164c-0.206,0.414-0.63,0.698-1.091,0.698H1.22c-0.674,0-1.22,0.517-1.22,1.191v9.576
			c0,0.673,0.546,1.216,1.22,1.216h3.072c0.648-3.187,3.474-5.593,6.849-5.593c3.376,0,6.2,2.406,6.85,5.593h2.039h11.656
			c0.648-3.187,3.474-5.593,6.849-5.593c3.336,0,6.133,2.349,6.825,5.479c0.416-0.193,0.707-0.611,0.707-1.104V8.033
			C46.066,7.358,45.52,6.838,44.846,6.838z M10.369,19.271c0,0.545-0.42,0.996-0.965,0.996H5.743c-0.219,0-0.422-0.118-0.537-0.304
			c-0.115-0.187-0.126-0.42-0.027-0.617l1.7-3.39c0.168-0.334,0.509-0.535,0.883-0.535h1.643c0.545,0,0.965,0.418,0.965,0.963
			L10.369,19.271L10.369,19.271z"/>
		<path d="M11.141,29.256c-2.754,0-4.986,2.232-4.986,4.986s2.232,4.986,4.986,4.986s4.986-2.232,4.986-4.986
			S13.895,29.256,11.141,29.256z M11.141,36.052c-0.999,0-1.81-0.81-1.81-1.81s0.811-1.81,1.81-1.81c1,0,1.81,0.81,1.81,1.81
			C12.95,35.242,12.141,36.052,11.141,36.052z"/>
		<path d="M38.533,29.256c-2.754,0-4.985,2.232-4.985,4.986s2.231,4.986,4.985,4.986c2.756,0,4.988-2.232,4.988-4.986
			S41.289,29.256,38.533,29.256z M38.533,36.052c-0.998,0-1.809-0.81-1.809-1.81s0.811-1.81,1.809-1.81c1,0,1.81,0.81,1.81,1.81
			S39.533,36.052,38.533,36.052z"/>
	</g>
</g>
<g>
</g>
<g>
</g>
<g>
</g>
<g>
</g>
<g>
</g>
<g>
</g>
<g>
</g>
<g>
</g>
<g>
</g>
<g>
</g>
<g>
</g>
<g>
</g>
<g>
</g>
<g>
</g>
<g>
</g>
</svg>
